<svg width="396" height="100" viewBox="0 0 396 100" fill="none" xmlns="http://www.w3.org/2000/svg">
<rect width="396" height="100" fill="white"/>
<path d="M19.6492 67.3684C17.5312 67.3684 15.4899 67.1228 13.5253 66.6316C11.5915 66.1098 10.0567 65.4652 8.92089 64.6978L11.3152 59.5408C12.451 60.2468 13.7863 60.83 15.3211 61.2905C16.8866 61.7202 18.4214 61.9351 19.9255 61.9351C21.5831 61.9351 22.7496 61.7356 23.4249 61.3365C24.1309 60.9375 24.4839 60.3849 24.4839 59.6789C24.4839 59.0957 24.2076 58.666 23.6551 58.3897C23.1333 58.0827 22.4273 57.8525 21.5371 57.699C20.6469 57.5455 19.6646 57.3921 18.5902 57.2386C17.5465 57.0851 16.4875 56.8856 15.4132 56.64C14.3388 56.3637 13.3565 55.9647 12.4663 55.4428C11.5761 54.921 10.8548 54.215 10.3022 53.3248C9.78039 52.4346 9.51947 51.2835 9.51947 49.8715C9.51947 48.306 9.96456 46.9246 10.8548 45.7275C11.7756 44.5303 13.0956 43.5941 14.8146 42.9188C16.5336 42.2127 18.5902 41.8597 20.9845 41.8597C22.6728 41.8597 24.3918 42.0439 26.1415 42.4123C27.8912 42.7806 29.3493 43.3178 30.5157 44.0238L28.1214 49.1348C26.9243 48.4287 25.7118 47.9529 24.4839 47.7074C23.2868 47.4311 22.1203 47.293 20.9845 47.293C19.3883 47.293 18.2219 47.5079 17.4852 47.9376C16.7484 48.3673 16.3801 48.9199 16.3801 49.5952C16.3801 50.2091 16.641 50.6696 17.1628 50.9765C17.7154 51.2835 18.4367 51.5291 19.3269 51.7132C20.2171 51.8974 21.1841 52.0663 22.2277 52.2197C23.3021 52.3425 24.3765 52.542 25.4508 52.8183C26.5252 53.0946 27.4921 53.4936 28.3516 54.0155C29.2418 54.5066 29.9632 55.1973 30.5157 56.0875C31.0683 56.947 31.3445 58.0827 31.3445 59.4948C31.3445 61.0296 30.8841 62.3956 29.9632 63.5927C29.0423 64.7592 27.707 65.6801 25.9573 66.3554C24.2383 67.0307 22.1356 67.3684 19.6492 67.3684ZM67.5009 41.8597C69.4655 41.8597 71.1998 42.2588 72.704 43.0569C74.2388 43.8243 75.4359 45.0215 76.2954 46.6484C77.1856 48.2446 77.6307 50.3012 77.6307 52.8183V67H70.4478V53.9234C70.4478 51.9281 70.0334 50.4547 69.2046 49.5031C68.3758 48.5515 67.2093 48.0757 65.7052 48.0757C64.6615 48.0757 63.7253 48.3213 62.8965 48.8124C62.0677 49.2729 61.4231 49.9789 60.9626 50.9305C60.5022 51.8821 60.272 53.0946 60.272 54.568V67H53.089V53.9234C53.089 51.9281 52.6746 50.4547 51.8458 49.5031C51.0477 48.5515 49.8966 48.0757 48.3925 48.0757C47.3488 48.0757 46.4126 48.3213 45.5838 48.8124C44.755 49.2729 44.1104 49.9789 43.6499 50.9305C43.1895 51.8821 42.9592 53.0946 42.9592 54.568V67H35.7763V42.2281H42.6369V48.9966L41.3477 47.0167C42.2072 45.3284 43.4197 44.0545 44.9852 43.195C46.5814 42.3048 48.3925 41.8597 50.4184 41.8597C52.69 41.8597 54.6699 42.443 56.3582 43.6094C58.0772 44.7452 59.2129 46.4949 59.7655 48.8585L57.233 48.1678C58.0618 46.234 59.3818 44.6991 61.1928 43.5634C63.0346 42.4276 65.1373 41.8597 67.5009 41.8597ZM99.2637 67V62.1653L98.8032 61.1063V52.45C98.8032 50.9151 98.3274 49.718 97.3759 48.8585C96.455 47.999 95.0276 47.5692 93.0937 47.5692C91.7738 47.5692 90.4692 47.7841 89.1799 48.2139C87.9214 48.6129 86.847 49.1655 85.9568 49.8715L83.3783 44.8526C84.729 43.901 86.3559 43.1643 88.2591 42.6425C90.1622 42.1207 92.0961 41.8597 94.0607 41.8597C97.8363 41.8597 100.768 42.7499 102.855 44.5303C104.942 46.3107 105.986 49.0887 105.986 52.8644V67H99.2637ZM91.7124 67.3684C89.7785 67.3684 88.1209 67.046 86.7396 66.4014C85.3583 65.7261 84.2992 64.8206 83.5625 63.6848C82.8258 62.549 82.4575 61.2751 82.4575 59.8631C82.4575 58.3897 82.8105 57.1004 83.5165 55.9954C84.2532 54.8903 85.4043 54.0308 86.9698 53.4169C88.5353 52.7723 90.5766 52.45 93.0937 52.45H99.6781V56.64H93.8765C92.1882 56.64 91.0217 56.9163 90.3771 57.4688C89.7632 58.0213 89.4562 58.712 89.4562 59.5408C89.4562 60.4617 89.8092 61.1984 90.5152 61.7509C91.2519 62.2728 92.2496 62.5337 93.5081 62.5337C94.7053 62.5337 95.7797 62.2574 96.7312 61.7049C97.6828 61.1217 98.3735 60.2775 98.8032 59.1724L99.9083 62.4876C99.3865 64.0839 98.4349 65.2964 97.0535 66.1252C95.6722 66.954 93.8918 67.3684 91.7124 67.3684ZM112.487 67V42.2281H119.348V49.2268L118.381 47.2009C119.117 45.4512 120.299 44.1313 121.926 43.2411C123.553 42.3202 125.533 41.8597 127.866 41.8597V48.4901C127.559 48.4594 127.283 48.4441 127.037 48.4441C126.792 48.4134 126.531 48.398 126.254 48.398C124.29 48.398 122.694 48.9659 121.466 50.1017C120.269 51.2068 119.67 52.9411 119.67 55.3047V67H112.487ZM143.121 67.3684C140.205 67.3684 137.933 66.6316 136.306 65.1582C134.68 63.6541 133.866 61.4286 133.866 58.4818V36.7488H141.049V58.3897C141.049 59.4334 141.325 60.2468 141.878 60.83C142.43 61.3826 143.182 61.6588 144.134 61.6588C145.27 61.6588 146.237 61.3519 147.035 60.738L148.969 65.8028C148.232 66.3247 147.342 66.7237 146.298 67C145.285 67.2456 144.226 67.3684 143.121 67.3684ZM130.044 48.306V42.7806H147.219V48.306H130.044Z" fill="#F97316"/>
<path d="M164.097 67.5525C161.519 67.5525 159.048 67.2149 156.684 66.5396C154.321 65.8335 152.418 64.928 150.975 63.8229L153.507 58.2055C154.889 59.1878 156.516 60.0012 158.388 60.6459C160.291 61.2598 162.21 61.5668 164.144 61.5668C165.617 61.5668 166.799 61.4286 167.689 61.1524C168.61 60.8454 169.285 60.431 169.715 59.9092C170.145 59.3873 170.36 58.7887 170.36 58.1134C170.36 57.2539 170.022 56.5786 169.347 56.0875C168.671 55.5656 167.781 55.1512 166.676 54.8443C165.571 54.5066 164.343 54.1996 162.992 53.9234C161.672 53.6164 160.337 53.2481 158.987 52.8183C157.667 52.3886 156.454 51.836 155.349 51.1607C154.244 50.4854 153.338 49.5952 152.632 48.4901C151.957 47.3851 151.619 45.973 151.619 44.254C151.619 42.4123 152.111 40.7393 153.093 39.2352C154.106 37.7004 155.61 36.4879 157.605 35.5977C159.631 34.6768 162.164 34.2164 165.203 34.2164C167.229 34.2164 169.224 34.4619 171.188 34.9531C173.153 35.4135 174.887 36.1195 176.391 37.0711L174.089 42.7346C172.585 41.8751 171.081 41.2458 169.577 40.8468C168.073 40.417 166.599 40.2021 165.157 40.2021C163.714 40.2021 162.532 40.371 161.611 40.7086C160.69 41.0463 160.03 41.4914 159.631 42.0439C159.232 42.5657 159.033 43.1797 159.033 43.8857C159.033 44.7145 159.37 45.3898 160.046 45.9116C160.721 46.4028 161.611 46.8018 162.716 47.1088C163.821 47.4158 165.034 47.7227 166.354 48.0297C167.704 48.3367 169.04 48.6897 170.36 49.0887C171.71 49.4878 172.938 50.0249 174.043 50.7003C175.148 51.3756 176.038 52.2658 176.714 53.3708C177.42 54.4759 177.773 55.8726 177.773 57.5609C177.773 59.372 177.266 61.0296 176.253 62.5337C175.24 64.0378 173.721 65.2503 171.695 66.1712C169.7 67.0921 167.167 67.5525 164.097 67.5525ZM192.493 67.3684C189.577 67.3684 187.305 66.6316 185.678 65.1582C184.051 63.6541 183.238 61.4286 183.238 58.4818V36.7488H190.421V58.3897C190.421 59.4334 190.697 60.2468 191.25 60.83C191.802 61.3826 192.554 61.6588 193.506 61.6588C194.642 61.6588 195.609 61.3519 196.407 60.738L198.341 65.8028C197.604 66.3247 196.714 66.7237 195.67 67C194.657 67.2456 193.598 67.3684 192.493 67.3684ZM179.416 48.306V42.7806H196.591V48.306H179.416ZM213.396 67.3684C210.756 67.3684 208.407 66.8158 206.351 65.7108C204.325 64.6057 202.713 63.1016 201.516 61.1984C200.35 59.2645 199.766 57.0697 199.766 54.614C199.766 52.1276 200.35 49.9329 201.516 48.0297C202.713 46.0958 204.325 44.5917 206.351 43.5173C208.407 42.4123 210.756 41.8597 213.396 41.8597C216.005 41.8597 218.338 42.4123 220.394 43.5173C222.451 44.5917 224.063 46.0805 225.229 47.9836C226.396 49.8868 226.979 52.0969 226.979 54.614C226.979 57.0697 226.396 59.2645 225.229 61.1984C224.063 63.1016 222.451 64.6057 220.394 65.7108C218.338 66.8158 216.005 67.3684 213.396 67.3684ZM213.396 61.4747C214.593 61.4747 215.667 61.1984 216.619 60.6459C217.57 60.0933 218.322 59.3106 218.875 58.2976C219.427 57.2539 219.704 56.0261 219.704 54.614C219.704 53.1713 219.427 51.9435 218.875 50.9305C218.322 49.9175 217.57 49.1348 216.619 48.5822C215.667 48.0297 214.593 47.7534 213.396 47.7534C212.198 47.7534 211.124 48.0297 210.173 48.5822C209.221 49.1348 208.454 49.9175 207.87 50.9305C207.318 51.9435 207.041 53.1713 207.041 54.614C207.041 56.0261 207.318 57.2539 207.87 58.2976C208.454 59.3106 209.221 60.0933 210.173 60.6459C211.124 61.1984 212.198 61.4747 213.396 61.4747ZM231.78 67V42.2281H238.641V49.2268L237.674 47.2009C238.41 45.4512 239.592 44.1313 241.219 43.2411C242.846 42.3202 244.826 41.8597 247.159 41.8597V48.4901C246.852 48.4594 246.576 48.4441 246.33 48.4441C246.084 48.4134 245.823 48.398 245.547 48.398C243.583 48.398 241.986 48.9659 240.759 50.1017C239.561 51.2068 238.963 52.9411 238.963 55.3047V67H231.78ZM255.415 76.301C254.126 76.301 252.852 76.1015 251.593 75.7024C250.335 75.3033 249.307 74.7508 248.508 74.0448L251.133 68.9339C251.686 69.425 252.315 69.8087 253.021 70.085C253.758 70.3612 254.479 70.4994 255.185 70.4994C256.198 70.4994 256.996 70.2538 257.579 69.7627C258.193 69.3022 258.746 68.5195 259.237 67.4144L260.526 64.3755L261.079 63.5927L269.965 42.2281H276.872L265.683 68.5195C264.885 70.5147 263.964 72.0802 262.92 73.216C261.907 74.3518 260.772 75.1499 259.513 75.6103C258.285 76.0708 256.919 76.301 255.415 76.301ZM259.651 67.9669L248.601 42.2281H256.014L264.578 62.9481L259.651 67.9669ZM290.607 67.3684C287.691 67.3684 285.419 66.6316 283.793 65.1582C282.166 63.6541 281.352 61.4286 281.352 58.4818V36.7488H288.535V58.3897C288.535 59.4334 288.811 60.2468 289.364 60.83C289.916 61.3826 290.669 61.6588 291.62 61.6588C292.756 61.6588 293.723 61.3519 294.521 60.738L296.455 65.8028C295.718 66.3247 294.828 66.7237 293.784 67C292.771 67.2456 291.712 67.3684 290.607 67.3684ZM277.53 48.306V42.7806H294.705V48.306H277.53ZM300.487 67V42.2281H307.67V67H300.487ZM304.078 38.7748C302.758 38.7748 301.684 38.3911 300.855 37.6236C300.026 36.8562 299.612 35.9047 299.612 34.7689C299.612 33.6331 300.026 32.6815 300.855 31.9141C301.684 31.1467 302.758 30.763 304.078 30.763C305.398 30.763 306.473 31.1314 307.301 31.8681C308.13 32.5741 308.545 33.495 308.545 34.6308C308.545 35.8279 308.13 36.8255 307.301 37.6236C306.503 38.3911 305.429 38.7748 304.078 38.7748ZM346.061 41.8597C348.025 41.8597 349.76 42.2588 351.264 43.0569C352.799 43.8243 353.996 45.0215 354.855 46.6484C355.745 48.2446 356.191 50.3012 356.191 52.8183V67H349.008V53.9234C349.008 51.9281 348.593 50.4547 347.764 49.5031C346.936 48.5515 345.769 48.0757 344.265 48.0757C343.221 48.0757 342.285 48.3213 341.456 48.8124C340.628 49.2729 339.983 49.9789 339.523 50.9305C339.062 51.8821 338.832 53.0946 338.832 54.568V67H331.649V53.9234C331.649 51.9281 331.235 50.4547 330.406 49.5031C329.608 48.5515 328.456 48.0757 326.952 48.0757C325.909 48.0757 324.972 48.3213 324.144 48.8124C323.315 49.2729 322.67 49.9789 322.21 50.9305C321.749 51.8821 321.519 53.0946 321.519 54.568V67H314.336V42.2281H321.197V48.9966L319.908 47.0167C320.767 45.3284 321.98 44.0545 323.545 43.195C325.141 42.3048 326.952 41.8597 328.978 41.8597C331.25 41.8597 333.23 42.443 334.918 43.6094C336.637 44.7452 337.773 46.4949 338.325 48.8585L335.793 48.1678C336.622 46.234 337.942 44.6991 339.753 43.5634C341.595 42.4276 343.697 41.8597 346.061 41.8597ZM375.103 67.3684C372.279 67.3684 369.792 66.8158 367.643 65.7108C365.525 64.6057 363.883 63.1016 362.717 61.1984C361.55 59.2645 360.967 57.0697 360.967 54.614C360.967 52.1276 361.535 49.9329 362.671 48.0297C363.837 46.0958 365.418 44.5917 367.413 43.5173C369.408 42.4123 371.665 41.8597 374.182 41.8597C376.607 41.8597 378.786 42.3816 380.72 43.4252C382.685 44.4382 384.235 45.9116 385.371 47.8455C386.506 49.7487 387.074 52.0356 387.074 54.7061C387.074 54.9824 387.059 55.3047 387.028 55.6731C386.997 56.0107 386.967 56.333 386.936 56.64H366.815V52.45H383.16L380.398 53.6932C380.398 52.4039 380.137 51.2835 379.615 50.3319C379.093 49.3803 378.372 48.6436 377.451 48.1218C376.53 47.5692 375.456 47.293 374.228 47.293C373 47.293 371.91 47.5692 370.959 48.1218C370.038 48.6436 369.316 49.3957 368.795 50.378C368.273 51.3295 368.012 52.4653 368.012 53.7852V54.8903C368.012 56.2409 368.303 57.4381 368.887 58.4818C369.501 59.4948 370.345 60.2775 371.419 60.83C372.524 61.3519 373.813 61.6128 375.287 61.6128C376.607 61.6128 377.758 61.4133 378.74 61.0142C379.753 60.6152 380.674 60.0166 381.503 59.2185L385.324 63.3625C384.189 64.6517 382.761 65.6494 381.042 66.3554C379.323 67.0307 377.343 67.3684 375.103 67.3684Z" fill="#7E22CE"/>
</svg>
